HIERARCHY
ROOT Hips
{
	OFFSET -3.958830 18.904000 13.208200
	CHANNELS 6 Xposition Yposition Zposition Zrotation Yrotation Xrotation 
	JOINT LHipJoint
	{
		OFFSET 0.000000 0.000000 0.000000
		CHANNELS 3 Zrotation Yrotation Xrotation
		JOINT LeftUpLeg
		{
			OFFSET 1.800000 -1.400000 0.085000
			CHANNELS 3 Zrotation Yrotation Xrotation
			JOINT LeftLeg
			{
				OFFSET 2.215000 -6.000000 0.000000
				CHANNELS 3 Zrotation Yrotation Xrotation
				JOINT LeftFoot
				{
					OFFSET 2.500000 -6.900000 0.000000
					CHANNELS 3 Zrotation Yrotation Xrotation
					JOINT LeftToeBase
					{
						OFFSET 0.200000 -0.500000 1.950000
						CHANNELS 3 Zrotation Yrotation Xrotation
						End Site
						{
							OFFSET 0.000000 0.000000 0.000000
						}
					}
				}
			}
		}
	}
	JOINT RHipJoint
	{
		OFFSET 0.000000 0.000000 0.000000
		CHANNELS 3 Zrotation Yrotation Xrotation
		JOINT RightUpLeg
		{
			OFFSET -1.800000 -1.400000 0.085000
			CHANNELS 3 Zrotation Yrotation Xrotation
			JOINT RightLeg
			{
				OFFSET -2.215000 -6.000000 0.000000
				CHANNELS 3 Zrotation Yrotation Xrotation
				JOINT RightFoot
				{
					OFFSET -2.500000 -6.900000 0.000000
					CHANNELS 3 Zrotation Yrotation Xrotation
					JOINT RightToeBase
					{
						OFFSET -0.200000 -0.500000 1.950000
						CHANNELS 3 Zrotation Yrotation Xrotation
						End Site
						{
							OFFSET 0.000000 0.000000 0.000000
						}
					}
				}
			}
		}
	}
	JOINT LowerBack
	{
		OFFSET 0.000000 0.000000 0.000000
		CHANNELS 3 Zrotation Yrotation Xrotation
		JOINT Spine
		{
			OFFSET -0.087000 1.940000 -0.288900
			CHANNELS 3 Zrotation Yrotation Xrotation
			JOINT Spine1
			{
				OFFSET 0.000000 1.950000 0.060000
				CHANNELS 3 Zrotation Yrotation Xrotation
				JOINT Neck
				{
					OFFSET 0.000000 0.000000 0.000000
					CHANNELS 3 Zrotation Yrotation Xrotation
					JOINT Neck1
					{
						OFFSET 0.000000 1.600000 0.340000
						CHANNELS 3 Zrotation Yrotation Xrotation
						JOINT Head
						{
							OFFSET 0.000000 1.667000 -0.240000
							CHANNELS 3 Zrotation Yrotation Xrotation
							End Site
							{
								OFFSET 0.000000 0.000000 0.000000
							}
						}
					}
				}
				JOINT LeftShoulder
				{
					OFFSET 0.000000 0.000000 0.000000
					CHANNELS 3 Zrotation Yrotation Xrotation
					JOINT LeftArm
					{
						OFFSET 2.700000 1.550000 -0.730000
						CHANNELS 3 Zrotation Yrotation Xrotation
						JOINT LeftForeArm
						{
							OFFSET 5.450000 0.000000 0.000000
							CHANNELS 3 Zrotation Yrotation Xrotation
							JOINT LeftHand
							{
								OFFSET 3.450000 0.000000 0.000000
								CHANNELS 3 Zrotation Yrotation Xrotation
								JOINT LeftHandIndex1
								{
									OFFSET 0.750000 0.000000 0.000000
									CHANNELS 3 Zrotation Yrotation Xrotation
									End Site
									{
										OFFSET 0.000000 0.000000 0.000000
									}
								}
							}
						}
					}
				}
				JOINT RightShoulder
				{
					OFFSET 0.000000 0.000000 0.000000
					CHANNELS 3 Zrotation Yrotation Xrotation
					JOINT RightArm
					{
						OFFSET -2.700000 1.550000 -0.730000
						CHANNELS 3 Zrotation Yrotation Xrotation
						JOINT RightForeArm
						{
							OFFSET -5.450000 0.000000 0.000000
							CHANNELS 3 Zrotation Yrotation Xrotation
							JOINT RightHand
							{
								OFFSET -3.450000 0.000000 0.000000
								CHANNELS 3 Zrotation Yrotation Xrotation
								JOINT RightHandIndex1
								{
									OFFSET -0.750000 0.000000 0.000000
									CHANNELS 3 Zrotation Yrotation Xrotation
									End Site
									{
										OFFSET 0.000000 0.000000 0.000000
									}
								}
							}
						}
					}
				}
			}
		}
	}
}
MOTION
Frames: 4
Frame Time: 0.016667
-3.285440 16.041550 -3.745320 -5.745450 -9.393640 -1.729046 -15.515957 8.182622 6.623517 33.750178 1.812957 -42.439141 -73.406221 43.097798 29.182470 2.090547 13.705859 0.265424 -0.030600 -0.366470 -0.113560 18.922621 -6.154748 5.209191 -40.852289 4.326097 -47.991428 43.317689 -30.238024 39.937383 -2.394771 -10.705098 0.615417 -0.522380 0.446650 0.786720 -4.434711 -1.011756 -10.796874 23.869685 -9.703881 46.608216 -11.172464 -0.895816 8.137549 4.248809 -2.950690 -12.328705 -13.824352 5.961427 65.728039 -2.362640 -1.071560 -42.153210 -18.024586 -14.420615 7.130993 9.611695 20.072385 -0.124434 1.338026 -54.413866 -0.953339 -3.498683 3.117165 1.381220 -0.199990 0.689350 0.256430 9.521654 16.406207 5.028173 -16.004423 -10.355580 -8.414084 169.148311 81.264367 169.463117 2.118635 -1.034898 -0.159720 0.463360 0.406880 0.081600 
-3.310500 15.928290 -3.731470 -6.202841 -9.783810 -0.923230 -15.541581 8.131760 6.630839 33.999672 2.266931 -43.197252 -72.797186 44.420746 30.201903 2.137166 13.719289 0.267599 -0.029920 -0.388010 -0.055770 18.921023 -5.976889 5.382200 -42.043391 4.017972 -49.234826 46.022067 -31.268815 39.057719 -2.491387 -10.731787 0.646170 -0.577260 0.376100 0.782090 -4.416163 -1.123896 -10.913113 23.846563 -9.357468 46.027408 -10.896660 -0.429225 8.198542 4.180230 -0.912061 -14.226574 -10.502244 4.476172 71.368712 -4.124680 -0.502800 -43.105270 -18.622823 -14.821109 6.853396 11.064784 20.624374 0.445864 -1.400085 -52.112380 0.640074 -3.406011 3.120558 1.444980 -0.252310 0.751960 0.243600 10.345046 14.836412 8.588833 -15.618450 -10.255848 -3.722242 -123.065129 80.064740 -118.776369 2.474314 -0.217558 -0.145820 0.448640 0.378440 0.052000 
-3.327310 15.846780 -3.732130 -6.858593 -10.390226 -1.277530 -15.612085 8.216890 6.616331 33.777237 2.067783 -43.098154 -69.422673 45.641789 33.227176 2.260592 13.844876 0.243422 -0.078820 -0.451800 -0.020970 18.839204 -5.860001 5.495482 -42.764994 4.271033 -49.337696 49.216724 -31.873377 37.874125 -2.562241 -10.703926 0.696391 -0.675190 0.284270 0.759990 -4.201711 -1.350216 -11.003911 23.535573 -8.443981 48.438992 -9.964692 0.844760 3.975720 4.235837 1.504694 -13.961077 -3.541881 0.449093 75.964512 -6.901320 0.669040 -43.277860 -20.208478 -16.901654 8.802455 11.004721 22.313086 1.236508 -3.154185 -47.762523 1.369722 -3.320111 3.182228 1.478370 -0.311440 0.807400 0.217540 11.708728 16.680095 5.654658 -15.866757 -13.358073 -7.321518 157.517001 88.781658 162.614958 2.258560 -0.804444 -0.122990 0.391560 0.342720 0.027920 
-3.321980 15.810250 -3.729000 -7.030910 -10.697046 -2.375464 -15.695026 8.429032 6.638026 33.081127 1.179253 -43.028234 -65.802146 46.521810 36.730485 2.425506 14.056062 0.209202 -0.120100 -0.499840 -0.028290 18.726825 -5.764011 5.469037 -42.825625 4.548213 -48.304985 50.376271 -31.976383 37.588911 -2.587452 -10.682504 0.746039 -0.758720 0.221530 0.724370 -3.912809 -1.882706 -11.043048 21.981346 -8.456967 52.154676 -9.183599 1.018904 -0.011740 4.152807 2.461099 -15.112506 -1.278690 -0.761346 78.749753 -7.753080 1.499780 -40.887680 -20.858461 -18.013132 9.530189 10.839543 23.154470 1.581253 -8.053981 -40.984103 3.030126 -3.142133 3.246825 1.483730 -0.360480 0.838060 0.223630 12.548783 17.629439 6.435133 -15.455395 -13.559312 -6.912906 -19.649573 88.088735 -12.827758 2.364178 -0.823418 -0.096620 0.334870 0.295540 0.034280 
